<?xml version="1.0" standalone="no"?>
<!DOCTYPE svg PUBLIC "-//W3C//DTD SVG 20010904//EN"
 "http://www.w3.org/TR/2001/REC-SVG-20010904/DTD/svg10.dtd">
<svg version="1.0" xmlns="http://www.w3.org/2000/svg"
 width="512.000000pt" height="512.000000pt" viewBox="0 0 512.000000 512.000000"
 preserveAspectRatio="xMidYMid meet">

<g transform="translate(0.000000,512.000000) scale(0.100000,-0.100000)"
fill="#000000" stroke="none">
<path d="M2093 4022 l-453 -227 0 -115 0 -116 -153 39 -153 39 -462 -231 -462
-231 0 -615 0 -615 1075 -537 1075 -538 460 230 460 230 0 152 c0 84 2 153 5
153 3 0 73 -34 155 -75 l150 -75 460 230 460 230 0 78 0 77 -1073 1073 c-589
589 -1077 1072 -1082 1071 -6 0 -214 -102 -462 -227z m1390 -1000 l917 -917
-307 -153 -306 -154 -614 614 -613 613 0 -228 c0 -125 -2 -227 -6 -227 -3 0
-68 16 -144 35 -105 26 -160 35 -224 35 l-86 0 0 -37 c0 -37 19 -57 537 -575
l536 -536 -306 -154 -307 -153 -920 920 -920 920 307 153 306 154 304 -76
c166 -42 305 -76 308 -76 3 0 5 103 5 230 l0 230 298 149 c163 83 302 150 307
150 6 1 423 -412 928 -917z"/>
</g>
</svg>
